<svg width="81" height="72" viewBox="0 0 81 72" fill="none" xmlns="http://www.w3.org/2000/svg">
<path d="M75.004 7.70018L75.383 2.37326C75.4216 1.82096 75.1318 1.31003 74.648 1.05755C74.1638 0.804595 73.5664 0.853591 73.1331 1.19036L67.3194 5.70882C67.0055 5.95284 66.8026 6.32445 66.7777 6.72371L66.3657 12.5631L53.115 22.861C42.9678 11.0079 25.0347 9.17134 12.4645 18.9409C-0.471445 28.9949 -2.90254 47.5964 7.0582 60.4125C17.0189 73.2285 35.6461 75.4634 48.5809 65.4104C61.1503 55.6414 63.7976 37.8094 54.8089 25.0561L68.0808 14.7411L73.6743 15.5685C74.0564 15.6279 74.4395 15.5197 74.746 15.2815L80.3953 10.8908C80.836 10.5483 81.0384 9.97569 80.8939 9.43514C80.7551 8.90194 80.3048 8.49216 79.7509 8.41215L75.004 7.70018ZM46.8739 63.2124C35.1562 72.3195 18.2892 70.2826 9.27703 58.687C0.25915 47.0841 2.45401 30.244 14.1722 21.1366C25.5159 12.3201 41.6905 13.945 50.8869 24.5897L45.9248 28.4462C38.8348 20.4961 26.5956 19.3381 17.979 26.0349C8.98902 33.022 7.30581 45.939 14.2239 54.8403C21.1426 63.7423 34.083 65.2924 43.0648 58.3117C51.681 51.6152 53.5804 39.4685 47.634 30.6296L52.596 26.7731C60.64 38.3259 58.2161 54.3931 46.8719 63.2099L46.8739 63.2124ZM37.8625 34.7144C34.2111 31.1426 28.3413 30.7312 24.1569 33.9834C19.591 37.532 18.7427 44.0905 22.2508 48.6043C25.7647 53.1255 32.3314 53.9092 36.8898 50.3663C41.0749 47.1137 42.1308 41.3313 39.5646 36.9044L45.4011 32.3682C50.4119 39.9876 48.7491 50.3713 41.3587 56.1152C33.5943 62.1497 22.4196 60.8052 16.4437 53.1163C10.4682 45.4279 11.9226 34.267 19.6876 28.232C27.0787 22.4876 37.5512 23.4401 43.6977 30.1764L37.8625 34.7144ZM37.3226 38.6467C38.9621 41.8354 38.1408 45.8684 35.1814 48.1685C31.8412 50.7645 27.035 50.1793 24.4702 46.8792C21.8995 43.5717 22.532 38.7714 25.8648 36.1812C28.8242 33.8811 32.9352 34.0808 35.6205 36.4566L29.6721 41.0798L31.3802 43.2776L37.3283 38.6539L37.3226 38.6467ZM73.3045 10.2778L76.1317 10.6919L73.5308 12.7133L69.2085 12.0722L69.527 7.516L72.374 5.30333L72.1254 8.80791C72.071 9.53922 72.5862 10.1715 73.3045 10.278L73.3045 10.2778Z" fill="#7A06EA"/>
</svg>
