<svg width="73" height="57" viewBox="0 0 73 57" fill="none" xmlns="http://www.w3.org/2000/svg">
<path d="M1.16236 0.00378809C0.866297 0.0275707 0.587651 0.158666 0.375852 0.374441C0.137087 0.6169 0.00225955 0.947534 1.60081e-05 1.29324C-0.00166938 1.63895 0.129787 1.97132 0.366303 2.21669L4.81959 6.87327L0.366303 11.5276C0.129796 11.773 -0.00166665 12.1048 1.60081e-05 12.4511C0.00226315 12.7968 0.13709 13.1274 0.375852 13.3699C0.613481 13.6135 0.935387 13.7498 1.27022 13.7475C1.60504 13.7458 1.92582 13.606 2.16065 13.3594L6.58978 8.72542L11.0211 13.3594H11.0205C11.2559 13.606 11.5761 13.7458 11.9109 13.7475C12.2458 13.7498 12.5677 13.6135 12.8053 13.3699C13.0429 13.1274 13.1778 12.7974 13.18 12.4522C13.1817 12.1071 13.0502 11.7753 12.8148 11.53L8.36156 6.87338L12.8148 2.21442C13.0502 1.96906 13.1817 1.63727 13.18 1.29214C13.1778 0.947015 13.0429 0.616959 12.8053 0.3745C12.5665 0.131462 12.2441 -0.00311722 11.9092 0.000372364C11.5744 0.00327258 11.2548 0.144225 11.0205 0.391904L6.58922 5.02354L2.16066 0.391904C1.89999 0.116375 1.53427 -0.0257328 1.16237 0.003847L1.16236 0.00378809ZM43.7537 0.724795L43.7543 0.724215C43.3846 0.696953 43.0223 0.839066 42.7639 1.11285C42.2807 1.62503 42.2897 2.44348 42.7835 2.94525L48.1166 8.31995C31.8983 8.16914 17.439 19.8693 13.5947 36.7727C13.2459 38.3075 12.9931 39.8609 12.833 41.427C9.55782 41.5512 6.61734 43.9398 5.82807 47.4085C4.88147 51.5709 7.3718 55.7925 11.3757 56.7879C15.379 57.7826 19.412 55.1818 20.3586 51.0192C21.2653 47.0349 19.03 42.9908 15.325 41.7795C15.4728 40.2946 15.707 38.8219 16.0379 37.3665C19.6906 21.3085 33.5678 10.3527 48.9706 10.9333L43.7601 17.8486C43.3325 18.413 43.428 19.2279 43.9735 19.6706C44.5224 20.1103 45.3117 20.0082 45.7382 19.442L52.3986 10.6159H52.3992C52.475 10.515 52.5363 10.4031 52.5806 10.2836C52.5818 10.2818 52.5823 10.2801 52.5835 10.2783C52.6211 10.1751 52.6458 10.0666 52.657 9.95641V9.95119C52.6582 9.94075 52.6587 9.92972 52.6593 9.9187C52.6604 9.90478 52.6615 9.89144 52.6621 9.87752C52.6632 9.86186 52.6638 9.84562 52.6644 9.82938V9.80385C52.6644 9.76963 52.6627 9.73483 52.6599 9.70002C52.6582 9.68668 52.6565 9.67276 52.6548 9.65942C52.6514 9.631 52.6475 9.60315 52.6424 9.57531C52.6419 9.57415 52.6408 9.57241 52.6402 9.57067C52.6329 9.53065 52.6239 9.49062 52.6132 9.45118C52.6121 9.44944 52.6115 9.44828 52.6104 9.44654C52.5997 9.40768 52.5874 9.36997 52.5733 9.33227C52.57 9.32473 52.5666 9.31661 52.5632 9.30907C52.5542 9.28703 52.5441 9.26498 52.534 9.24294C52.5233 9.22148 52.5115 9.2006 52.4997 9.17972C52.4941 9.16928 52.4885 9.15942 52.4823 9.14956C52.4773 9.13796 52.4711 9.12751 52.4655 9.11649C52.4627 9.11301 52.4604 9.10953 52.4576 9.10605C52.4469 9.08865 52.4351 9.07183 52.4233 9.05501L52.4188 9.05037C52.379 8.99352 52.3346 8.94016 52.2863 8.89028L44.5393 1.0846C44.3269 0.873462 44.0494 0.745861 43.755 0.724389L43.7537 0.724795ZM65.3953 1.33152C62.0728 1.39997 59.0741 3.80838 58.2752 7.32053C57.3286 11.4829 59.8118 15.7022 63.815 16.6976C67.8189 17.6929 71.8514 15.0915 72.7986 10.9295C73.7452 6.7671 71.2649 2.53728 67.261 1.54253C66.6352 1.38707 66.0105 1.31921 65.3953 1.33197V1.33152ZM65.5672 3.93015C65.9363 3.93305 66.3104 3.97945 66.6857 4.07226C69.3525 4.73525 70.9896 7.51017 70.3502 10.3199C69.7114 13.1297 67.0542 14.8398 64.3879 14.1768C61.7212 13.5143 60.0841 10.7394 60.7235 7.92906C61.2729 5.51427 63.3128 3.91159 65.5678 3.92956L65.5672 3.93015ZM47.0407 33.057C46.6688 33.0274 46.3031 33.1695 46.043 33.4457L41.6088 38.0791L37.1724 33.4457C36.687 32.9358 35.8943 32.9271 35.3982 33.4254C35.1595 33.6678 35.0241 33.9984 35.0224 34.3441C35.0201 34.6904 35.1522 35.0222 35.3881 35.2676L39.842 39.9272L35.3881 44.5815V44.5809C35.1527 44.8263 35.0218 45.1581 35.0235 45.5032C35.0252 45.8483 35.16 46.1784 35.3982 46.4208C35.8915 46.922 36.6847 46.9174 37.1724 46.411L41.6088 41.7746L46.043 46.4132C46.2778 46.6591 46.5986 46.7984 46.9334 46.8001C47.2682 46.8018 47.5901 46.665 47.8272 46.4208C48.0654 46.1789 48.2002 45.8482 48.2019 45.5031C48.2036 45.158 48.0727 44.8262 47.8373 44.5814L43.379 39.9271L47.8373 35.2675C48.0733 35.0227 48.2053 34.6904 48.203 34.3447C48.2014 33.9984 48.066 33.6677 47.8272 33.4253C47.6154 33.2107 47.3368 33.0801 47.0407 33.0575L47.0407 33.057ZM13.005 44.0199C13.414 44.0124 13.8297 44.0588 14.246 44.1621C16.9128 44.825 18.5499 47.6 17.9104 50.4097C17.2711 53.2201 14.6167 54.9196 11.9505 54.2572C9.28373 53.5942 7.63717 50.8245 8.27586 48.0141C8.81517 45.6428 10.7965 44.0587 13.0044 44.0199L13.005 44.0199Z" fill="#7A06EA"/>
</svg>
