<svg width="71" height="71" viewBox="0 0 71 71" fill="none" xmlns="http://www.w3.org/2000/svg">
<path d="M70.6179 68.0158L67.9868 70.6469C67.4686 71.1302 66.6611 71.1155 66.1601 70.6145C65.6591 70.1135 65.6444 69.306 66.1277 68.7878L66.5137 68.4018H7.4218C6.14325 68.3994 4.91736 67.8904 4.01375 66.9862C3.1096 66.0827 2.60064 64.8567 2.59818 63.5782V4.48624L2.21218 4.87224C1.69403 5.3555 0.886544 5.34083 0.385532 4.83982C-0.11548 4.3388 -0.13017 3.5313 0.35311 3.01317L2.98424 0.382038C3.10659 0.257855 3.25278 0.159361 3.41368 0.0926784C3.72077 -0.0308928 4.06334 -0.0308928 4.36984 0.0926784C4.53072 0.159358 4.67692 0.25785 4.79928 0.382038L7.43041 3.01317C7.69162 3.25664 7.84271 3.59555 7.84884 3.95219C7.85557 4.30883 7.71609 4.65325 7.46406 4.90589C7.21141 5.15793 6.86761 5.29679 6.51036 5.29067C6.15373 5.28455 5.81482 5.13345 5.57134 4.87223L5.18534 4.48623V63.5782C5.18534 64.1673 5.42208 64.7319 5.84296 65.1442C6.26384 65.5566 6.83275 65.7823 7.42186 65.7707H66.5138L66.1278 65.3847C65.6445 64.8665 65.6592 64.059 66.1602 63.558C66.6612 63.057 67.4687 63.0429 67.9868 63.5256L70.618 66.1567C70.7422 66.2791 70.8406 66.4253 70.9073 66.5862C71.0309 66.8933 71.0309 67.2358 70.9073 67.5423C70.8455 67.7191 70.7471 67.8806 70.618 68.0158L70.6179 68.0158ZM49.9554 42.2056C50.049 42.216 50.1432 42.216 50.2362 42.2056C50.8528 42.2038 51.385 41.7731 51.5166 41.1711C51.99 39.005 52.455 36.6987 52.9022 34.4708C54.533 26.3058 56.2172 17.869 59.1554 13.2648C59.5475 12.6519 59.3689 11.837 58.7566 11.4449C58.1436 11.0528 57.3288 11.2314 56.9366 11.8438C53.7269 16.86 51.9901 25.551 50.3152 33.9533C49.8766 36.1721 49.438 38.4612 48.9474 40.6097C48.8635 40.9553 48.9241 41.3205 49.1137 41.6209C49.304 41.9219 49.6074 42.1329 49.9555 42.2057L49.9554 42.2056ZM33.161 38.2947C33.0014 37.5851 32.2966 37.1391 31.587 37.2988C30.8774 37.4591 30.4314 38.1638 30.5917 38.8734L30.7318 39.5048C32.9329 49.2743 35.0201 58.5088 41.1858 58.5088C43.229 58.5088 45.0269 57.4566 46.5268 55.378H46.5262C46.9526 54.7895 46.8211 53.9667 46.2326 53.541C45.6441 53.1146 44.8213 53.2461 44.395 53.8346C43.404 55.2025 42.3517 55.8692 41.1852 55.8692C37.1244 55.8692 35.0898 46.8626 33.2926 38.9167L33.161 38.2947ZM12.4296 48.4147H12.5434C13.2243 48.4129 13.7913 47.8917 13.8501 47.2132C14.2624 42.9182 14.9592 38.6555 15.9373 34.453C17.7701 26.8846 20.3223 22.5523 22.8482 22.5523C23.3479 22.5523 24.8743 22.5523 26.5315 25.5779C26.8924 26.1896 27.673 26.4037 28.2958 26.063C28.9186 25.7222 29.1584 24.9484 28.8378 24.3153C27.2419 21.4034 25.2249 19.9303 22.8483 19.9303C18.7967 19.9303 15.604 24.6224 13.3682 33.8743C12.3576 38.206 11.643 42.6008 11.2283 47.0292C11.1873 47.74 11.7202 48.3542 12.4298 48.4148L12.4296 48.4147ZM30.2231 27.2009C31.386 27.2009 32.5019 27.6634 33.3241 28.4856C34.1462 29.3077 34.6081 30.4229 34.6081 31.5859C34.6081 32.7494 34.1462 33.8647 33.3241 34.6868C32.5019 35.509 31.3861 35.9709 30.2231 35.9709C29.0602 35.9709 27.945 35.509 27.1228 34.6868C26.3006 33.8647 25.8381 32.7495 25.8381 31.5859C25.8381 30.423 26.3006 29.3077 27.1228 28.4856C27.945 27.6634 29.0602 27.2009 30.2231 27.2009ZM28.4693 31.5859C28.4693 32.2955 28.8969 32.9354 29.5521 33.2064C30.2079 33.478 30.9621 33.3282 31.4638 32.8265C31.9654 32.3249 32.1153 31.5706 31.8436 30.9148C31.5726 30.2597 30.9328 29.8321 30.2231 29.8321C29.2547 29.8321 28.4693 30.6175 28.4693 31.5859L28.4693 31.5859ZM59.6024 8.66195C59.6024 7.49903 60.0643 6.38381 60.8865 5.56163C61.7093 4.73884 62.8245 4.27698 63.9874 4.27698C65.1504 4.27698 66.2656 4.73884 67.0884 5.56163C67.9105 6.38381 68.3724 7.499 68.3724 8.66195C68.3724 9.82488 67.9105 10.9401 67.0884 11.7629C66.2656 12.5851 65.1504 13.0469 63.9874 13.0469C62.8245 13.0469 61.7093 12.5851 60.8865 11.7629C60.0643 10.9401 59.6024 9.82491 59.6024 8.66195ZM62.2336 8.66195C62.2336 9.37157 62.6606 10.0108 63.3164 10.2825C63.9715 10.5541 64.7258 10.4042 65.2274 9.90261C65.729 9.40098 65.8795 8.64611 65.6079 7.99093C65.3363 7.33576 64.697 6.90815 63.9874 6.90815C63.0184 6.90815 62.2335 7.69362 62.2335 8.66197L62.2336 8.66195ZM44.1409 47.6708C44.1409 46.5079 44.6028 45.3921 45.425 44.5699C46.2472 43.7477 47.363 43.2858 48.5259 43.2858C49.6888 43.2858 50.8041 43.7477 51.6262 44.5699C52.4484 45.3921 52.9109 46.5079 52.9109 47.6708C52.9109 48.8337 52.4484 49.949 51.6262 50.7711C50.8041 51.5933 49.6889 52.0558 48.5259 52.0558C47.363 52.0558 46.2472 51.5933 45.425 50.7711C44.6028 49.949 44.1409 48.8338 44.1409 47.6708ZM46.7721 47.6708H46.7715C46.7715 48.3798 47.1991 49.0197 47.8542 49.2914C48.51 49.5624 49.2643 49.4125 49.7659 48.9109C50.2676 48.4092 50.4174 47.655 50.1464 46.9992C49.8748 46.344 49.2349 45.9164 48.5259 45.9164C48.0603 45.9164 47.6144 46.1018 47.2853 46.4303C46.9568 46.7594 46.7714 47.2053 46.7714 47.6709L46.7721 47.6708Z" fill="#7A06EA"/>
</svg>
