<svg width="77" height="73" viewBox="0 0 77 73" fill="none" xmlns="http://www.w3.org/2000/svg">
<path fill-rule="evenodd" clip-rule="evenodd" d="M47.8941 30.5381V39.0126L41.7857 44.6665L41.7852 44.6659C41.7397 44.7078 41.6969 44.7524 41.657 44.8003C39.791 42.21 39.4314 38.838 40.7085 35.9166C41.9855 32.9958 44.7129 30.9535 47.8941 30.536L47.8941 30.5381ZM49.5685 40.7266L43.4241 46.4152H43.4235C43.3791 46.4559 43.3319 46.4939 43.2825 46.5286C44.9665 47.9117 47.0943 48.6492 49.2799 48.6073C51.465 48.566 53.563 47.7481 55.1924 46.3028C56.8219 44.8569 57.8747 42.8797 58.1606 40.7288L49.5685 40.7266ZM50.2989 30.5381C52.2892 30.803 54.1368 31.7101 55.5576 33.1197C56.9779 34.5286 57.8926 36.3616 58.1605 38.3373H50.2989V30.5381ZM17.5548 40.2016H37.5755C37.7481 43.1358 39.0502 45.8918 41.2119 47.9001C43.3743 49.9088 46.2308 51.0165 49.1924 50.9944C52.1533 50.9723 54.9933 49.8223 57.1245 47.7816C59.2557 45.7409 60.5161 42.9661 60.6443 40.0298C60.773 37.0935 59.7601 34.2206 57.8148 32.0042C55.8696 29.7884 53.1411 28.3982 50.1929 28.1212C50.2606 27.9653 50.2967 27.7973 50.2989 27.6271V17.4012C50.3072 17.0796 50.1846 16.7678 49.9581 16.537C49.7317 16.3062 49.4209 16.1757 49.0962 16.1757C48.7715 16.1757 48.4607 16.3062 48.2343 16.537C48.0079 16.7678 47.8852 17.0796 47.8941 17.4012V27.6271C47.8957 27.7973 47.9318 27.9653 48.0001 28.1212C45.9376 28.3145 43.9668 29.0586 42.2962 30.2737V24.725C42.2962 24.0657 41.7573 23.5314 41.093 23.5314C40.4286 23.5314 39.8903 24.0657 39.8903 24.725V32.6211C38.7264 34.1424 37.9649 35.9291 37.6769 37.8173H34.2926V21.502C34.3009 21.1797 34.1782 20.868 33.9518 20.6372C33.7254 20.4064 33.4146 20.2765 33.0899 20.2765C32.7652 20.2765 32.4544 20.4064 32.228 20.6372C32.0015 20.868 31.8789 21.1798 31.8877 21.502V37.8131H26.29V28.7283C26.29 28.069 25.7511 27.5348 25.0868 27.5348C24.4224 27.5348 23.8841 28.069 23.8841 28.7283V37.8131H17.5531C16.8887 37.8131 16.3498 38.3479 16.3498 39.0072C16.3498 39.6665 16.8887 40.2007 17.5531 40.2007L17.5548 40.2016ZM24.1954 23.3491H24.196C23.7514 22.8594 23.7897 22.1054 24.2815 21.6626L32.284 14.4373C32.6259 14.1261 33.1182 14.0386 33.5478 14.2132L40.8411 17.1511L48.2843 10.3411V10.3406C48.7733 9.89332 49.5347 9.92417 49.9855 10.4089C50.4367 10.8941 50.4056 11.6498 49.9166 12.0976L41.9129 19.4187H41.9135C41.5694 19.7338 41.0726 19.8236 40.6386 19.649L33.3415 16.7088L25.8983 23.4278C25.6774 23.6283 25.3888 23.7396 25.0891 23.7396C24.7488 23.7396 24.4247 23.5975 24.1949 23.3491L24.1954 23.3491ZM37.2503 57.1839C37.2508 56.8672 37.3785 56.5632 37.6044 56.339C37.8308 56.1154 38.1372 55.9898 38.4569 55.9904H38.5423C38.867 55.9815 39.1817 56.1038 39.4143 56.3285C39.6468 56.5533 39.7783 56.8623 39.7783 57.1845C39.7783 57.5067 39.6468 57.8157 39.4143 58.0404C39.1817 58.2651 38.867 58.3874 38.5423 58.3786H38.4569C38.1372 58.3791 37.8303 58.2535 37.6044 58.0294C37.3779 57.8052 37.2508 57.5012 37.2503 57.1839V57.1839ZM74.5921 52.8233V8.19616H2.40771V52.8233H74.5921ZM70.4479 59.1591C71.5179 59.1569 72.5464 58.7454 73.3183 58.0096C74.0903 57.2743 74.5466 56.2719 74.5921 55.211H2.40768C2.45319 56.2718 2.9094 57.2743 3.68141 58.0096C4.45342 58.7455 5.4813 59.1569 6.55131 59.1591H70.4479ZM56.9391 70.1116C57.0284 70.1942 57.049 70.3269 56.9896 70.4327C56.9485 70.5445 56.8392 70.6166 56.7193 70.61H20.2769C20.157 70.6166 20.0471 70.5445 20.0066 70.4327C19.9505 70.3264 19.9705 70.1964 20.056 70.1116C22.0073 67.9508 24.0087 65.2525 24.1508 61.5446H52.8469C52.9879 65.2525 54.9859 67.9508 56.9401 70.1116H56.9391ZM6.55137 2.38829H70.4481C71.4261 2.38994 72.3724 2.73363 73.12 3.35933C73.8676 3.98503 74.3688 4.85198 74.5352 5.80811H2.46453C2.63103 4.85195 3.13275 3.98496 3.88034 3.35933C4.62793 2.73363 5.57366 2.38994 6.55161 2.38829H6.55137ZM70.4481 0H6.55137C4.81371 0.0016524 3.14809 0.686835 1.9198 1.90635C0.691509 3.12586 0.00113665 4.7787 0 6.50273V55.0427C0.00166505 56.7671 0.692092 58.4201 1.92037 59.6396C3.14859 60.8585 4.81357 61.5448 6.55137 61.5464H21.7413C21.5925 64.4584 19.9103 66.7001 18.2719 68.5177V68.5182C17.8035 69.0349 17.5549 69.7118 17.5787 70.4064C17.6026 71.1015 17.8973 71.7597 18.4007 72.2432C18.9035 72.7273 19.5762 72.9984 20.2766 73H56.7233C57.4243 72.9995 58.0975 72.7285 58.6015 72.2449C59.1048 71.7613 59.4001 71.1025 59.4245 70.4075C59.4484 69.7124 59.2003 69.0349 58.7313 68.5183C57.0896 66.7001 55.4073 64.459 55.2587 61.5465H70.4486C72.1863 61.5448 73.8513 60.8585 75.0796 59.6397C76.3078 58.4203 76.9983 56.7674 77 55.0428V6.50282C76.9989 4.77878 76.3085 3.12596 75.0802 1.90643C73.8519 0.686906 72.1864 0.00177728 70.4486 8.5254e-05L70.4481 0Z" fill="#7A06EA"/>
</svg>
