<?xml version="1.0" encoding="utf-8"?>
<!-- Generator: Adobe Illustrator 26.3.1, SVG Export Plug-In . SVG Version: 6.00 Build 0)  -->
<svg version="1.1" id="Layer_1" xmlns="http://www.w3.org/2000/svg" xmlns:xlink="http://www.w3.org/1999/xlink" x="0px" y="0px"
	 viewBox="0 0 504 911" style="enable-background:new 0 0 504 911;" xml:space="preserve">
<style type="text/css">
	.st0{fill:none;}
	.st1{fill:#AC5BFB;}
</style>
<g>
	<path class="st0" d="M80.9,161.7c9.5-6.1,17.4-11.4,16.7-22.6c-0.5-8.3-1.9-16.5-1.8-24.8c0.1-13.2,2.4-26.7,10.1-38
		c8.7-12.8,24.3-21.8,36.2-32.5c14.8-13.3,28.5-28,40.7-44.3h-11.6c-17.4,21.7-37.6,40.3-59.3,56.6c-13.3,10-19.9,23.4-21.9,38.6
		c-1,8-1.3,15.9-0.5,23.9c0.2,4.9,3.6,16.6,2.4,20.9c-1.2,4.2-8.9,8.5-12.7,11.3c-5.2,3.8-10.7,7.1-16.5,10
		c-12.3,6.1-26.1,10.2-41,12.6c-7.1,1.1-14.4,1.9-21.9,2.2v7.4c11.2-0.1,22.1-1.1,32.4-3C50.6,176.6,67.1,170.6,80.9,161.7z"/>
	<path class="st0" d="M40.4,187.9c18.1-3.4,34.6-9.4,48.4-18.4c9.5-6.2,17.4-11.4,16.7-22.6c-0.5-8.3-1.9-16.5-1.8-24.8
		c0.1-13.3,2.5-26.9,10-38.2c8.6-12.9,24.3-21.9,36.2-32.7c16.9-15.2,32.3-32.4,45.7-51.7h-11.1c-18.5,25-40.7,45.9-64.6,64.1
		c-13.3,10-19.8,23.5-21.9,38.7c-1,8-1.2,16-0.5,23.9c0.4,5,3.8,16.8,2.6,21c-1.1,4.2-8.9,8.6-12.6,11.3
		c-5.1,3.9-10.7,7.3-16.5,10.1c-12.2,6.1-26.1,10.3-41,12.7c-9.5,1.6-19.5,2.4-29.8,2.5v7.1C14.1,191.2,27.7,190.3,40.4,187.9z"/>
	<path class="st0" d="M73.2,153.8c9.4-6.1,17.4-11.3,16.8-22.5c-0.5-8.3-1.9-16.5-1.8-24.8c0.1-13.2,2.5-26.7,10.1-37.9
		c8.7-12.8,24.4-21.6,36.4-32.4c12.6-11.1,24.4-23.4,35.2-36.8h-12.3c-16,18.4-34.1,34.5-53.3,48.8c-13.2,9.9-19.8,23.3-22,38.4
		c-1,7.9-1.2,15.9-0.5,23.8c0.2,4.9,3.7,16.7,2.4,20.9c-1.2,4.2-8.9,8.4-12.7,11.2c-5.2,3.8-10.8,7.1-16.6,9.9
		c-12.3,6-26.2,10.3-41.1,12.6c-4.5,0.7-9.2,1.2-13.9,1.6v7.8c8.5-0.4,16.7-1.3,24.7-2.7C42.7,168.6,59.3,162.6,73.2,153.8z"/>
	<path class="st0" d="M35.2,76.1c-0.5-8.1-1.7-16.3-1.6-24.5c0.3-13,2.7-26.3,10.5-37.2c4.1-5.6,9.6-10.4,15.6-15H44.3
		c-9.5,8.9-14.5,20-16.4,32.4c-1.1,7.8-1.3,15.6-0.7,23.5c0.3,5,3.7,16.5,2.4,20.7c-1.3,4.1-9.1,8.2-13,10.9
		C11.4,90.5,5.8,93.7,0,96.4v10.5c6.4-2.5,12.4-5.4,18-8.9C27.7,92.2,35.8,87.2,35.2,76.1z"/>
	<path class="st0" d="M65.2,145.9c9.5-6.1,17.6-11.2,16.9-22.4c-0.5-8.3-1.9-16.5-1.8-24.8c0.1-13.2,2.5-26.6,10.1-37.8
		C99.2,48.2,115,39.4,127,28.7c10.3-9,20.1-18.8,29.2-29.3h-12.6c-14.4,15.3-30.2,29-46.9,41.3C83.4,50.6,76.8,64,74.7,79
		c-1,7.9-1.2,15.9-0.6,23.8c0.4,4.9,3.8,16.6,2.5,20.8c-1.2,4.2-8.9,8.5-12.8,11.2c-5.2,3.8-10.7,7.1-16.5,9.9
		C35,150.7,21,154.8,6,157.1c-2,0.3-4,0.6-6,0.8v8.1c5.7-0.5,11.2-1.2,16.6-2.2C34.8,160.6,51.4,154.7,65.2,145.9z"/>
	<path class="st0" d="M48.3,196c18.1-3.4,34.5-9.6,48.3-18.6c9.4-6.2,17.3-11.5,16.6-22.7c-0.6-8.4-2-16.5-1.9-24.9
		c0.1-13.3,2.4-26.9,9.9-38.2c8.6-13,24.2-22,36.1-32.9c18.9-17.2,36-36.9,50.4-59.3h-10.9c-19.4,28.3-43.3,51.6-69.5,71.6
		c-13.2,10.1-19.7,23.6-21.8,38.8c-1,8-1.2,16.1-0.5,24.1c0.4,4.9,3.8,16.7,2.6,20.9c-1.1,4.3-8.8,8.7-12.6,11.4
		c-5.1,3.8-10.7,7.2-16.4,10.1c-12.9,6.3-26.8,10.6-40.9,12.9c-12,2-24.7,2.8-37.8,2.5v7C16.9,199.9,33.2,198.9,48.3,196z"/>
	<path class="st0" d="M57.5,137.8c9.5-6,17.5-11.2,16.8-22.3c-0.4-8.3-1.8-16.4-1.7-24.7c0.2-13.1,2.6-26.6,10.2-37.7
		c8.8-12.7,24.6-21.4,36.7-32c7.8-6.8,15.4-14.1,22.5-21.7h-13.4C116.3,11.7,102.9,22.9,89,33.1c-13.3,9.7-20,23.1-22.2,38.1
		c-1,7.9-1.2,15.9-0.6,23.8c0.4,4.9,3.7,16.7,2.5,20.8c-1.2,4.1-8.9,8.4-12.8,11.1c-5.2,3.7-10.8,7-16.7,9.8
		c-12.4,5.8-25.6,9.8-39.1,11.9v8.3c3-0.4,5.9-0.8,8.8-1.3C27,152.5,43.6,146.6,57.5,137.8z"/>
	<path class="st0" d="M11.4,52.5c-0.4-8.2-1.8-16.3-1.5-24.4c0.2-9.8,1.8-19.7,5.9-28.6H6.5c-0.9,2.9-1.6,5.9-2.1,9
		C3.3,16.2,3,24.1,3.6,31.8c0.3,4.9,3.5,16.6,2.3,20.6c-0.7,2.1-3.1,4.3-5.9,6.2v12C6.9,66.1,11.9,61.2,11.4,52.5z"/>
	<path class="st0" d="M58.6,99.7c-0.5-8.2-1.8-16.4-1.7-24.6c0.3-13.2,2.6-26.6,10.4-37.7C76.1,25,92,16.4,104.1,6
		c2.5-2.1,4.9-4.3,7.4-6.5H96.8c-7.5,6.4-15.3,12.4-23.2,18.1c-13.4,9.6-20.1,22.8-22.4,37.9c-1,7.8-1.2,15.8-0.6,23.6
		c0.3,4.9,3.7,16.6,2.4,20.7c-1.3,4.2-9.1,8.4-12.9,11.1c-5.3,3.7-10.9,6.9-16.7,9.7C15.9,124.1,8,126.9,0,129v9
		c15.4-3.3,29.6-8.7,41.6-16.2C51.2,116,59.3,110.8,58.6,99.7z"/>
	<path class="st0" d="M50.8,91.8c-0.5-8.2-1.9-16.4-1.6-24.5c0.3-13.1,2.6-26.5,10.4-37.5c8.5-12,23.6-20.4,35.5-30.3H79.9
		C75.3,3.1,70.6,6.6,65.9,10c-13.4,9.6-20.2,22.8-22.4,37.7c-1.1,7.9-1.3,15.7-0.7,23.6c0.3,4.8,3.7,16.7,2.4,20.7
		c-1.3,4.1-9.1,8.3-12.8,10.9c-5.3,3.7-10.9,7-16.8,9.7c-4.9,2.3-10.1,4.3-15.6,6v9.1c12.4-3.3,23.8-8,33.7-14.1
		C43.4,107.9,51.4,102.8,50.8,91.8z"/>
	<path class="st0" d="M49.6,130c9.6-6,17.6-11.1,16.9-22.3c-0.5-8.2-1.8-16.4-1.7-24.6C65.1,70,67.4,56.6,75,45.5
		c8.8-12.6,24.7-21.3,36.9-31.8c5.3-4.6,10.5-9.3,15.5-14.3h-14.2C103,8.7,92.3,17.3,81.3,25.3C67.9,35,61.2,48.3,59,63.3
		c-1,7.9-1.2,15.9-0.6,23.7c0.3,4.9,3.7,16.7,2.5,20.9c-1.3,4.1-9,8.3-12.8,11.1c-5.2,3.8-10.8,7.1-16.7,9.8
		c-10,4.6-20.5,8.1-31.3,10.4v8.7c0.2,0,0.5-0.1,0.7-0.1C18.9,144.6,35.6,138.7,49.6,130z"/>
	<path class="st0" d="M56.2,204.2c18.1-3.4,34.5-9.7,48.1-18.8c9.5-6.2,17.3-11.5,16.6-22.8c-0.7-8.4-2-16.6-1.9-24.9
		c0.1-13.3,2.3-27,9.9-38.4c8.5-13,24.1-22.1,36-33.1c20.9-19.1,39.5-41.3,54.6-66.8h-10.4C189,31.2,163.3,57,135.1,78.9
		c-13.2,10.1-19.6,23.7-21.7,39c-0.9,8-1.1,16-0.4,24.1c0.4,4.9,3.8,16.7,2.6,20.9c-1.1,4.3-8.8,8.7-12.6,11.5
		c-5.1,3.9-10.6,7.3-16.4,10.2c-12.2,6.2-26.1,10.5-40.8,13.1c-14.4,2.4-29.8,3.1-45.8,2.1v6.8C19.7,208.3,38.8,207.6,56.2,204.2z"
		/>
	<path class="st0" d="M3.7,44.4C3.2,36.3,2,28.2,2.2,20.2c0.2-7,1-14,3-20.7H0v56.5C2.5,52.9,3.9,49.2,3.7,44.4z"/>
	<path class="st0" d="M19.3,60.2c-0.5-8.1-1.8-16.2-1.5-24.4C18,23.1,20.4,10.2,27.8-0.5H17.4c-2.6,5.3-4.3,11-5.2,17
		c-1.1,7.8-1.3,15.6-0.8,23.5c0.3,4.9,3.6,16.4,2.3,20.6c-1.3,4.1-9.1,8.2-13,10.8c-0.3,0.2-0.5,0.3-0.8,0.5v11.3
		c0.7-0.4,1.3-0.7,2-1.1C11.7,76.1,19.9,71.2,19.3,60.2z"/>
	<path class="st0" d="M103.9,252.5c17.8-3.8,34.1-10.4,47.5-19.8c9.3-6.4,17.1-12,16.2-23.3c-0.6-8.4-2-16.8-2-25.2
		c0-13.5,2.2-27.3,9.5-38.9c8.4-13.4,23.7-22.9,35.3-34.2c30.7-29.8,56.4-66.7,72.9-111.7h-9C269.1,13,262.8,26,255.6,38.6
		c-19.9,34.4-45.9,62.3-74.7,85.9c-12.9,10.5-19.3,24.4-21.1,39.8c-1,8.1-1.1,16.3-0.3,24.4c0.4,5,3.7,16.9,2.6,21.2
		c-1.2,4.2-8.7,8.8-12.4,11.8c-5.1,4-10.5,7.5-16.2,10.5c-12.1,6.5-25.7,11.1-40.4,13.8c-28.3,5.3-60.6,3.8-93.2-4.4v5.2
		c11.3,3.2,22.8,5.7,34.3,7.3C58.8,257.5,82.5,257,103.9,252.5z"/>
	<path class="st0" d="M80.2,228.2c17.9-3.7,34.3-10.1,47.8-19.3c9.4-6.3,17.2-11.7,16.4-23c-0.5-8.3-2-16.6-1.9-24.9
		c0.1-13.5,2.3-27.2,9.7-38.7c8.4-13.2,23.9-22.5,35.6-33.6c26.1-24.6,48.6-54.1,65.1-89.2h-9.5c-3,6-6.3,12-9.7,17.8
		c-20.2,34-46.6,61.4-75.6,84.5c-13.1,10.3-19.5,24-21.4,39.4c-0.9,8.1-1,16.2-0.4,24.2c0.4,5,3.8,16.9,2.6,21.1
		c-1.2,4.2-8.7,8.7-12.5,11.6c-5.1,4-10.5,7.4-16.3,10.3c-12.8,6.4-26.5,11-40.6,13.4c-21.4,3.9-45.1,3.8-69.4,0v5.6
		c3.4,0.7,6.9,1.2,10.3,1.8C34.9,232.9,58.8,232.5,80.2,228.2z"/>
	<path class="st0" d="M88,236.4c17.9-3.7,34.2-10.1,47.8-19.3c9.3-6.4,17.1-11.9,16.3-23.2c-0.6-8.3-1.9-16.6-1.9-25
		c0-13.5,2.2-27.2,9.6-38.8c8.5-13.2,23.9-22.5,35.5-33.7c27.7-26.5,51.4-58.4,68-96.8h-9.4c-3.9,8.5-8.3,16.8-13,24.9
		c-20.1,34-46.2,61.7-75.3,84.9c-12.9,10.3-19.4,24-21.3,39.5c-0.9,8.1-1,16.2-0.3,24.2c0.3,5,3.8,16.9,2.6,21.2
		c-1.1,4.2-8.7,8.7-12.5,11.6c-5.1,4-10.5,7.5-16.3,10.4c-12.7,6.5-26.4,11.1-40.5,13.5c-23.7,4.4-50.3,3.9-77.4-1.2v5.8
		c6.1,1.3,12.2,2.5,18.3,3.4C42.9,241.2,66.6,240.8,88,236.4z"/>
	<path class="st0" d="M43,84.1c-0.4-8.2-1.8-16.4-1.6-24.5c0.2-13.1,2.7-26.4,10.5-37.3c6.3-8.9,16.3-15.8,26-22.8H62.2
		c-1.3,1-2.6,1.9-3.9,2.8C44.7,11.8,38,24.9,35.7,39.9c-1,7.8-1.2,15.7-0.7,23.6c0.3,4.9,3.7,16.5,2.4,20.7
		c-1.3,4.2-9.1,8.3-12.9,10.9c-5.3,3.6-11,6.9-16.8,9.5c-2.5,1.1-5.1,2.2-7.7,3.2v10c9.4-3,18.1-6.9,25.9-11.7
		C35.5,100.1,43.7,95.1,43,84.1z"/>
	<path class="st0" d="M72.2,220.3c17.9-3.5,34.3-9.9,47.9-19.1c9.4-6.4,17.2-11.7,16.4-23c-0.5-8.3-1.9-16.7-1.9-24.9
		c0.1-13.4,2.4-27,9.7-38.6c8.5-13.1,24-22.3,35.8-33.4c24.4-22.9,45.7-49.9,61.9-81.8h-9.8c-2,3.6-4,7.2-6.1,10.7
		c-20.3,33.8-46.7,61-75.9,84c-13,10.3-19.4,24-21.5,39.3c-0.9,8.1-1,16.2-0.3,24.2c0.4,5,3.8,16.8,2.6,21
		c-1.1,4.3-8.7,8.8-12.5,11.6c-5.1,3.9-10.6,7.3-16.3,10.2c-12.8,6.4-26.5,10.9-40.7,13.2c-19.1,3.4-40,3.7-61.5,1v6.2
		c0.7,0.1,1.5,0.2,2.2,0.4C26.8,224.9,50.8,224.6,72.2,220.3z"/>
	<path class="st0" d="M64.2,212.3c18-3.6,34.5-9.8,48.1-19c9.4-6.3,17.2-11.6,16.5-22.9c-0.7-8.3-2-16.5-1.9-24.9
		c0.1-13.3,2.3-27,9.8-38.5c8.5-13,24.1-22.2,35.9-33.2c22.7-21.1,42.7-45.7,58.5-74.4h-10.2c-0.7,1.2-1.4,2.4-2.1,3.6
		c-20.3,33.6-46.8,60.7-76.1,83.5c-13.1,10.3-19.6,23.9-21.6,39.2c-0.9,8-1.1,16.1-0.4,24.1c0.4,4.9,3.8,16.7,2.6,21
		c-1.2,4.2-8.8,8.6-12.5,11.5c-5.1,3.9-10.6,7.3-16.4,10.2c-12.9,6.5-26.6,10.8-40.7,13.1c-16.7,2.9-34.9,3.4-53.7,1.7v6.5
		C22.6,216.7,44.4,216.2,64.2,212.3z"/>
	<path class="st0" d="M27.4,68.1C27,60,25.6,51.8,25.8,43.7c0.3-13,2.8-26.3,10.6-37.2c1.8-2.5,3.9-4.8,6.2-7H29.6
		c-5.2,7.3-8.3,15.6-9.7,24.6c-1,7.8-1.3,15.7-0.7,23.6c0.3,4.9,3.5,16.4,2.3,20.6c-1.2,4.1-9.1,8.2-12.9,10.9
		C5.8,81,2.9,82.7,0,84.3v11c3.5-1.7,6.9-3.5,10.2-5.4C19.9,84.1,28,79.1,27.4,68.1z"/>
	<path class="st0" d="M95.7,244.3c17.9-3.7,34.2-10.2,47.7-19.5c9.3-6.4,17.1-12,16.3-23.3c-0.6-8.3-2-16.7-1.9-25.1
		c0-13.5,2.2-27.2,9.5-38.9c8.5-13.3,23.8-22.7,35.4-34c29.3-28.2,54-62.5,70.6-104.2h-8.9c-4.7,11-10.1,21.6-16,32
		c-20,34.3-46.2,62-75,85.4c-13,10.5-19.4,24.3-21.3,39.8c-0.9,8.1-1,16.2-0.2,24.2c0.4,5,3.8,16.9,2.6,21.2
		c-1.1,4.3-8.7,8.8-12.4,11.7c-5.1,4-10.5,7.5-16.2,10.5c-12.7,6.6-26.4,11.1-40.5,13.6c-26,4.8-55.5,3.9-85.4-2.7v5.5
		c8.6,2.1,17.4,3.9,26.2,5.2C50.7,249.3,74.5,248.8,95.7,244.3z"/>
	<path class="st1" d="M210.5,111.2c-11.6,11.3-26.9,20.8-35.3,34.2c-7.3,11.6-9.5,25.5-9.5,38.9c0,8.4,1.4,16.8,2,25.2
		c0.9,11.3-6.9,16.9-16.2,23.3c-13.4,9.4-29.7,16-47.5,19.8c-21.4,4.4-45.1,5-69.6,1.6c-11.5-1.6-23-4.1-34.3-7.3v0.9
		c0.7,0.2,1.5,0.4,2.2,0.7c34.5,9.6,69.1,11.5,99,5.8c14.1-2.5,27.7-7.2,40.3-13.9c5.7-3,11.1-6.5,16.1-10.6c3.7-3,11.2-7.6,12.4-12
		c1.2-4.3-2.3-16.2-2.6-21.1c-0.7-8.1-0.7-16.3,0.1-24.4c1.9-15.5,8.2-29.3,21.1-40c28.8-23.7,54.6-51.7,74.4-86.4
		c8.4-14.8,15.6-30.3,21.4-46.3h-1C266.9,44.5,241.2,81.3,210.5,111.2z"/>
	<path class="st1" d="M93.2,246c14.6-2.7,28.3-7.3,40.4-13.8c5.7-3,11.1-6.5,16.2-10.5c3.7-3,11.2-7.5,12.4-11.8
		c1.1-4.3-2.3-16.2-2.6-21.2c-0.8-8.1-0.7-16.3,0.3-24.4c1.9-15.5,8.2-29.3,21.1-39.8c28.8-23.6,54.8-51.5,74.7-85.9
		C262.8,26,269.1,13,274.4-0.5h-1.1c-16.6,41.7-41.3,76.1-70.6,104.2c-11.6,11.3-26.9,20.7-35.4,34c-7.3,11.6-9.5,25.4-9.5,38.9
		c-0.1,8.4,1.4,16.7,1.9,25.1c0.8,11.3-7,16.9-16.3,23.3c-13.5,9.3-29.8,15.8-47.7,19.5c-21.3,4.4-45,4.9-69.6,1.4
		c-8.8-1.3-17.5-3-26.2-5.2v0.9C32.5,249.7,64.9,251.3,93.2,246z"/>
	<path class="st1" d="M85.4,237.8c14.1-2.5,27.8-7,40.5-13.6c5.7-3,11.1-6.5,16.2-10.5c3.8-2.9,11.3-7.5,12.4-11.7
		c1.2-4.3-2.3-16.2-2.6-21.2c-0.7-8-0.7-16.1,0.2-24.2c1.9-15.5,8.3-29.3,21.3-39.8c28.9-23.4,55-51.1,75-85.4c6-10.3,11.3-21,16-32
		h-1.1c-16.6,38.4-40.2,70.3-68,96.8c-11.7,11.2-27.1,20.6-35.5,33.7c-7.4,11.6-9.6,25.4-9.6,38.8c0,8.4,1.3,16.7,1.9,25
		c0.8,11.3-7,16.9-16.3,23.2c-13.6,9.3-29.9,15.7-47.8,19.3c-21.4,4.3-45.2,4.8-69.7,1.3c-6.1-0.9-12.3-2.1-18.3-3.4v0.8
		C29.9,241.7,59.4,242.7,85.4,237.8z"/>
	<path class="st1" d="M77.4,229.8c14.1-2.4,27.8-7,40.5-13.5c5.8-2.9,11.2-6.4,16.3-10.4c3.7-3,11.3-7.4,12.5-11.6
		c1.2-4.3-2.3-16.2-2.6-21.2c-0.7-8-0.6-16.1,0.3-24.2c1.9-15.5,8.4-29.2,21.3-39.5c29.1-23.3,55.2-50.9,75.3-84.9
		c4.7-8.1,9.1-16.4,13-24.9h-1.1c-16.5,35.1-39,64.6-65.1,89.2c-11.7,11.1-27.2,20.4-35.6,33.6c-7.4,11.5-9.6,25.2-9.7,38.7
		c-0.1,8.3,1.3,16.6,1.9,24.9c0.8,11.3-7,16.7-16.4,23c-13.5,9.2-29.9,15.6-47.8,19.3c-21.4,4.3-45.3,4.7-69.9,1
		c-3.5-0.5-6.9-1.1-10.3-1.8v1C27.1,233.6,53.7,234.1,77.4,229.8z"/>
	<path class="st1" d="M69.4,221.8c14.1-2.4,27.8-6.9,40.6-13.4c5.8-3,11.2-6.4,16.3-10.3c3.8-2.9,11.3-7.4,12.5-11.6
		c1.2-4.3-2.2-16.1-2.6-21.1c-0.7-8-0.6-16.1,0.4-24.2c1.9-15.4,8.4-29.1,21.4-39.4c29-23.2,55.4-50.6,75.6-84.5
		c3.4-5.8,6.7-11.8,9.7-17.8h-1.2c-16.2,31.9-37.5,59-61.9,81.8c-11.8,11.1-27.3,20.3-35.8,33.4c-7.4,11.6-9.6,25.2-9.7,38.6
		c0,8.3,1.3,16.6,1.9,24.9c0.8,11.3-7,16.6-16.4,23c-13.6,9.2-30,15.5-47.9,19.1c-21.4,4.3-45.4,4.5-70,0.9
		c-0.7-0.1-1.5-0.2-2.2-0.4v1C24.3,225.7,48,225.7,69.4,221.8z"/>
	<path class="st1" d="M61.5,213.7c14.1-2.3,27.8-6.8,40.7-13.2c5.7-2.9,11.2-6.3,16.3-10.2c3.8-2.9,11.4-7.3,12.5-11.6
		c1.2-4.3-2.2-16-2.6-21c-0.7-8-0.6-16.1,0.3-24.2c2.1-15.3,8.5-28.9,21.5-39.3c29.3-23,55.7-50.2,75.9-84c2.1-3.5,4.1-7.1,6.1-10.7
		h-1.2c-15.8,28.7-35.8,53.3-58.5,74.4c-11.7,11-27.3,20.2-35.9,33.2c-7.5,11.5-9.7,25.1-9.8,38.5c-0.1,8.4,1.2,16.6,1.9,24.9
		c0.7,11.3-7.1,16.6-16.5,22.9c-13.6,9.1-30.1,15.4-48.1,19c-19.8,3.8-41.6,4.3-64.2,1.5v0.8C21.6,217.4,42.5,217.1,61.5,213.7z"/>
	<path class="st1" d="M53.7,205.7c14.1-2.3,27.8-6.7,40.7-13.1c5.8-2.9,11.2-6.3,16.4-10.2c3.8-2.8,11.4-7.3,12.5-11.5
		c1.2-4.3-2.2-16.1-2.6-21c-0.7-8-0.6-16.1,0.4-24.1c2.1-15.3,8.5-28.9,21.6-39.2C172,63.7,198.5,36.7,218.8,3
		c0.7-1.2,1.4-2.4,2.1-3.6h-1.3C204.4,25,185.8,47.2,165,66.3c-11.9,11-27.5,20.1-36,33.1c-7.5,11.4-9.8,25.1-9.9,38.4
		c-0.1,8.3,1.2,16.5,1.9,24.9c0.7,11.3-7.1,16.6-16.6,22.8c-13.7,9.1-30.1,15.4-48.1,18.8c-17.5,3.4-36.5,4.1-56.2,2.3v0.8
		C18.8,209.1,36.9,208.6,53.7,205.7z"/>
	<path class="st1" d="M45.8,197.6c14.8-2.6,28.6-6.9,40.8-13.1c5.8-2.9,11.2-6.3,16.4-10.2c3.8-2.8,11.4-7.2,12.6-11.5
		c1.2-4.3-2.2-16-2.6-20.9c-0.7-8-0.6-16.1,0.4-24.1c2.1-15.3,8.6-28.9,21.7-39C163.3,57,189,31.2,209.2-0.5h-1.4
		c-14.4,22.4-31.4,42.1-50.4,59.3c-11.9,10.9-27.5,19.9-36.1,32.9c-7.5,11.3-9.8,24.9-9.9,38.2c-0.1,8.3,1.3,16.5,1.9,24.9
		c0.7,11.2-7.2,16.5-16.6,22.7c-13.8,8.9-30.2,15.2-48.3,18.6c-15.1,2.9-31.4,3.8-48.3,2.8v0.9C16,200.7,31.4,200.1,45.8,197.6z"/>
	<path class="st1" d="M37.8,189.4c14.2-2.2,28-6.6,40.9-12.9c5.7-2.9,11.2-6.3,16.4-10.1c3.9-2.8,11.5-7.2,12.6-11.4
		c1.2-4.2-2.2-16-2.6-20.9c-0.7-8-0.5-16.1,0.5-24.1c2-15.2,8.6-28.7,21.8-38.8c26.2-20,50.1-43.4,69.5-71.6h-1.4
		c-13.4,19.3-28.8,36.5-45.7,51.7C138,61.9,122.3,71,113.7,83.8c-7.5,11.3-9.9,24.9-10,38.2c-0.1,8.3,1.3,16.5,1.8,24.8
		c0.7,11.2-7.2,16.5-16.7,22.6c-13.7,9-30.3,15.1-48.4,18.4c-12.7,2.4-26.3,3.4-40.4,3v1C13.1,192.2,25.8,191.4,37.8,189.4z"/>
	<path class="st1" d="M29.8,181.3c14.9-2.4,28.8-6.7,41-12.7c5.8-2.8,11.4-6.2,16.5-10.1c3.7-2.8,11.5-7.2,12.6-11.3
		c1.2-4.2-2.2-15.9-2.6-21c-0.7-7.9-0.5-15.9,0.5-23.9c2.1-15.3,8.6-28.7,21.9-38.7c23.9-18.2,46.1-39.2,64.6-64.1h-1.5
		c-12.2,16.3-25.9,31.1-40.7,44.3c-12,10.7-27.6,19.7-36.2,32.5c-7.6,11.3-9.9,24.8-10.1,38c-0.1,8.3,1.3,16.5,1.8,24.8
		c0.7,11.2-7.2,16.5-16.7,22.6c-13.8,8.9-30.3,15-48.5,18.3c-10.3,1.9-21.2,2.9-32.4,3v0.9C10.3,183.7,20.2,182.9,29.8,181.3z"/>
	<path class="st1" d="M62.9,160.7c5.8-2.8,11.3-6.1,16.5-10c3.8-2.8,11.5-7.2,12.7-11.3c1.2-4.3-2.2-16-2.4-20.9
		c-0.8-8-0.6-15.9,0.5-23.9c2-15.2,8.7-28.6,21.9-38.6c21.7-16.3,41.9-34.9,59.3-56.6h-1.4c-10.8,13.4-22.6,25.6-35.2,36.8
		C122.7,47,107,55.8,98.3,68.6c-7.6,11.2-9.9,24.7-10.1,37.9c-0.1,8.3,1.3,16.5,1.8,24.8c0.7,11.2-7.4,16.3-16.8,22.5
		c-13.9,8.9-30.4,14.9-48.5,18.2c-7.9,1.4-16.2,2.3-24.7,2.7v0.9c7.5-0.3,14.8-1,21.9-2.2C36.7,170.9,50.6,166.8,62.9,160.7z"/>
	<path class="st1" d="M55,152.6c5.8-2.8,11.4-6.1,16.6-9.9c3.8-2.8,11.4-7.1,12.7-11.2c1.2-4.3-2.2-16-2.4-20.9
		c-0.8-7.9-0.6-15.9,0.5-23.8c2.2-15.1,8.8-28.5,22-38.4c19.2-14.3,37.3-30.4,53.3-48.8h-1.4C147.1,10,137.3,19.7,127,28.7
		c-12,10.7-27.8,19.4-36.5,32.2c-7.6,11.2-10,24.6-10.1,37.8c-0.1,8.3,1.3,16.5,1.8,24.8c0.7,11.2-7.4,16.3-16.9,22.4
		c-13.8,8.9-30.4,14.8-48.6,18c-5.4,1-10.9,1.7-16.6,2.2v0.8c4.7-0.4,9.4-0.9,13.9-1.6C28.8,162.9,42.7,158.7,55,152.6z"/>
	<path class="st1" d="M47.3,144.8c5.8-2.7,11.3-6.1,16.5-9.9c3.9-2.7,11.6-7,12.8-11.2c1.2-4.2-2.2-15.9-2.5-20.8
		C73.5,95,73.7,86.9,74.7,79c2.2-15.1,8.8-28.4,22.1-38.2c16.7-12.3,32.5-26,46.9-41.3h-1.5c-7.2,7.7-14.7,14.9-22.5,21.7
		c-12.1,10.6-27.9,19.2-36.7,32c-7.7,11.1-10.1,24.6-10.2,37.7c-0.1,8.3,1.3,16.4,1.7,24.7c0.7,11.1-7.3,16.3-16.8,22.3
		c-13.9,8.8-30.5,14.7-48.7,17.9C5.9,156.2,3,156.6,0,157v1c2-0.2,4-0.5,6-0.8C21,154.8,35,150.7,47.3,144.8z"/>
	<path class="st1" d="M55.8,126.9c3.9-2.7,11.6-7,12.8-11.1c1.2-4.1-2.1-15.9-2.5-20.8c-0.6-7.9-0.4-15.9,0.6-23.8
		C69,56.2,75.6,42.8,89,33.1c13.9-10.2,27.3-21.4,39.7-33.6h-1.4c-5,4.9-10.2,9.7-15.5,14.3C99.7,24.2,83.9,32.9,75,45.5
		c-7.7,11.1-10,24.5-10.2,37.7c-0.1,8.2,1.1,16.3,1.7,24.6c0.7,11.2-7.3,16.2-16.9,22.3c-13.9,8.7-30.6,14.6-48.8,17.7
		c-0.2,0-0.5,0.1-0.7,0.1v0.9c13.5-2.1,26.7-6.1,39.1-11.9C45,134,50.6,130.7,55.8,126.9z"/>
	<path class="st1" d="M48,119c3.9-2.7,11.6-6.9,12.8-11.1c1.3-4.1-2.1-15.9-2.5-20.9C57.8,79.2,58,71.2,59,63.3
		c2.2-15,9-28.3,22.3-38.1c11.1-8,21.7-16.6,31.9-25.8h-1.7c-2.4,2.2-4.9,4.4-7.4,6.5C92,16.4,76.1,25,67.3,37.5
		C59.5,48.6,57.2,62,56.9,75.2c-0.2,8.2,1.1,16.3,1.7,24.6c0.7,11.1-7.4,16.2-16.9,22.1C29.6,129.4,15.4,134.7,0,138v1.1
		c10.8-2.3,21.3-5.7,31.3-10.4C37.2,126,42.8,122.8,48,119z"/>
	<path class="st1" d="M40.1,110.9c3.8-2.8,11.6-7,12.9-11.1c1.3-4.1-2.2-15.8-2.4-20.7c-0.6-7.9-0.4-15.8,0.6-23.6
		c2.2-15,9-28.3,22.4-37.9c8-5.7,15.7-11.8,23.2-18.1h-1.6c-12,9.9-27.1,18.3-35.5,30.3c-7.8,11-10.2,24.4-10.4,37.5
		c-0.2,8.2,1.1,16.3,1.6,24.5c0.6,11.1-7.4,16.1-17.1,22c-9.9,6.1-21.4,10.8-33.7,14.1v1.1c8-2.1,15.9-4.9,23.4-8.4
		C29.2,117.9,34.9,114.6,40.1,110.9z"/>
	<path class="st1" d="M32.4,103c3.8-2.7,11.6-6.8,12.8-10.9c1.3-4.1-2.1-15.9-2.4-20.7c-0.7-7.9-0.5-15.8,0.7-23.6
		c2.2-15,9-28.1,22.4-37.7c4.8-3.4,9.5-6.9,14.1-10.5h-2.1c-9.7,7-19.6,13.8-26,22.8c-7.8,10.9-10.3,24.2-10.5,37.3
		c-0.2,8.2,1.1,16.3,1.6,24.5c0.7,11-7.5,16-17.1,22c-7.8,4.8-16.5,8.7-25.9,11.7v1c5.4-1.7,10.6-3.7,15.6-6
		C21.5,110,27.1,106.8,32.4,103z"/>
	<path class="st1" d="M24.5,95.1c3.8-2.7,11.6-6.8,12.9-10.9c1.3-4.1-2.1-15.8-2.4-20.7c-0.6-7.9-0.4-15.8,0.7-23.6
		c2.3-15,9.1-28.1,22.6-37.6c1.3-0.9,2.6-1.9,3.9-2.8h-2.5c-6,4.5-11.5,9.3-15.6,15C36.4,25.3,34,38.7,33.7,51.6
		c-0.1,8.2,1.1,16.3,1.6,24.5c0.6,11.1-7.5,16-17.2,21.9c-5.6,3.4-11.6,6.4-18,8.9v0.9c2.6-1,5.2-2,7.7-3.2
		C13.5,102,19.2,98.8,24.5,95.1z"/>
	<path class="st1" d="M29.6,76c1.3-4.1-2.1-15.7-2.4-20.7c-0.6-7.9-0.4-15.7,0.7-23.5c1.9-12.4,6.9-23.6,16.4-32.4h-1.7
		c-2.3,2.2-4.4,4.5-6.2,7c-7.8,10.9-10.3,24.2-10.6,37.2C25.6,51.8,27,60,27.4,68.1c0.6,11-7.5,16-17.2,21.7
		c-3.3,2-6.7,3.8-10.2,5.4v1.1c5.8-2.7,11.4-5.9,16.6-9.5C20.5,84.3,28.4,80.2,29.6,76z"/>
	<path class="st1" d="M21.5,68.2c1.2-4.1-2-15.7-2.3-20.6c-0.7-7.9-0.4-15.8,0.7-23.6c1.4-9,4.5-17.4,9.7-24.6h-1.7
		C20.4,10.2,18,23.1,17.7,35.8c-0.2,8.1,1.1,16.3,1.5,24.4c0.6,11-7.6,15.9-17.3,21.8c-0.6,0.4-1.3,0.8-2,1.1v1.3
		c2.9-1.6,5.8-3.4,8.5-5.3C12.4,76.5,20.2,72.4,21.5,68.2z"/>
	<path class="st1" d="M13.8,60.5c1.3-4.1-2-15.7-2.3-20.6c-0.6-7.9-0.3-15.7,0.8-23.5c0.9-6,2.6-11.7,5.2-17h-1.6
		c-4.1,8.9-5.6,18.9-5.9,28.6c-0.2,8.2,1.1,16.3,1.5,24.4C11.9,61.2,6.9,66.1,0,70.6v1.2c0.3-0.2,0.5-0.3,0.8-0.5
		C4.6,68.7,12.5,64.6,13.8,60.5z"/>
	<path class="st1" d="M5.9,52.4c1.3-4-2-15.7-2.3-20.6C3,24.1,3.3,16.2,4.4,8.5c0.5-3.1,1.2-6.1,2.1-9H5.1c-2,6.7-2.8,13.7-3,20.7
		c-0.2,8,1.1,16.1,1.5,24.3c0.2,4.8-1.2,8.4-3.7,11.5v2.7C2.8,56.7,5.2,54.6,5.9,52.4z"/>
</g>
</svg>
